<mxfile host="65bd71144e">
    <diagram id="Tqdrs8dBk5Z0eQj1Ug90" name="Page-1">
        <mxGraphModel dx="667" dy="518" grid="1" gridSize="10" guides="1" tooltips="1" connect="1" arrows="1" fold="1" page="1" pageScale="1" pageWidth="850" pageHeight="1100" math="0" shadow="0">
            <root>
                <mxCell id="0"/>
                <mxCell id="1" parent="0"/>
                <mxCell id="2" value="" style="shape=umlLifeline;participant=umlActor;perimeter=lifelinePerimeter;whiteSpace=wrap;html=1;container=1;collapsible=0;recursiveResize=0;verticalAlign=top;spacingTop=36;outlineConnect=0;size=70;" vertex="1" parent="1">
                    <mxGeometry x="295" y="210" width="40" height="450" as="geometry"/>
                </mxCell>
                <mxCell id="3" value="&lt;font style=&quot;font-size: 20px;&quot;&gt;Web UI&lt;/font&gt;" style="shape=umlLifeline;perimeter=lifelinePerimeter;whiteSpace=wrap;html=1;container=1;collapsible=0;recursiveResize=0;outlineConnect=0;size=60;" vertex="1" parent="1">
                    <mxGeometry x="395" y="210" width="125" height="450" as="geometry"/>
                </mxCell>
                <mxCell id="4" value="send the request" style="html=1;verticalAlign=bottom;endArrow=block;entryX=-0.084;entryY=0.029;entryDx=0;entryDy=0;entryPerimeter=0;labelBackgroundColor=none;" edge="1" parent="3" source="5">
                    <mxGeometry width="80" relative="1" as="geometry">
                        <mxPoint x="60" y="130" as="sourcePoint"/>
                        <mxPoint x="223.16000000000008" y="130.14999999999998" as="targetPoint"/>
                    </mxGeometry>
                </mxCell>
                <mxCell id="5" value="" style="html=1;points=[];perimeter=orthogonalPerimeter;verticalAlign=middle;fillStyle=auto;rounded=0;glass=0;shadow=0;fillColor=#f5f5f5;gradientColor=#b3b3b3;strokeColor=#666666;" vertex="1" parent="3">
                    <mxGeometry x="57.5" y="114" width="10" height="306" as="geometry"/>
                </mxCell>
                <mxCell id="6" value="&lt;font style=&quot;&quot;&gt;&lt;font style=&quot;font-size: 20px;&quot;&gt;Middleware&lt;/font&gt;&lt;br&gt;&lt;/font&gt;" style="shape=umlLifeline;perimeter=lifelinePerimeter;whiteSpace=wrap;html=1;container=1;collapsible=0;recursiveResize=0;outlineConnect=0;size=60;" vertex="1" parent="1">
                    <mxGeometry x="554" y="210" width="140" height="450" as="geometry"/>
                </mxCell>
                <mxCell id="7" value="" style="html=1;points=[];perimeter=orthogonalPerimeter;fontSize=11;fillColor=#f5f5f5;gradientColor=#b3b3b3;strokeColor=#666666;" vertex="1" parent="6">
                    <mxGeometry x="65" y="126.5" width="10" height="213.5" as="geometry"/>
                </mxCell>
                <mxCell id="8" value="&lt;span style=&quot;font-size: 20px;&quot;&gt;Domain&lt;br&gt;Service&lt;br&gt;&lt;/span&gt;" style="shape=umlLifeline;perimeter=lifelinePerimeter;whiteSpace=wrap;html=1;container=1;collapsible=0;recursiveResize=0;outlineConnect=0;size=60;" vertex="1" parent="1">
                    <mxGeometry x="905" y="210" width="120" height="460" as="geometry"/>
                </mxCell>
                <mxCell id="9" value="&lt;font style=&quot;font-size: 11px;&quot;&gt;pass the request&lt;br&gt;&lt;/font&gt;" style="html=1;verticalAlign=bottom;endArrow=block;fontSize=14;labelBackgroundColor=none;entryX=0.043;entryY=0.088;entryDx=0;entryDy=0;entryPerimeter=0;" edge="1" parent="8">
                    <mxGeometry relative="1" as="geometry">
                        <mxPoint x="-101.5" y="345" as="sourcePoint"/>
                        <mxPoint x="55.430000000000064" y="344.9359999999999" as="targetPoint"/>
                    </mxGeometry>
                </mxCell>
                <mxCell id="10" value="" style="html=1;points=[];perimeter=orthogonalPerimeter;rounded=0;shadow=0;glass=0;sketch=0;fillStyle=auto;fontSize=14;fillColor=#f5f5f5;gradientColor=#b3b3b3;strokeColor=#666666;" vertex="1" parent="8">
                    <mxGeometry x="55" y="333" width="10" height="57" as="geometry"/>
                </mxCell>
                <mxCell id="11" value="&lt;font style=&quot;font-size: 11px;&quot;&gt;add a new news&lt;br&gt;&lt;/font&gt;" style="html=1;verticalAlign=bottom;endArrow=block;fontSize=22;labelBackgroundColor=none;" edge="1" parent="1" target="5">
                    <mxGeometry x="0.0036" width="80" relative="1" as="geometry">
                        <mxPoint x="315" y="329.9999999999999" as="sourcePoint"/>
                        <mxPoint x="445" y="330" as="targetPoint"/>
                        <Array as="points"/>
                        <mxPoint as="offset"/>
                    </mxGeometry>
                </mxCell>
                <mxCell id="12" value="&lt;font style=&quot;font-size: 20px;&quot;&gt;Application Service&lt;/font&gt;" style="shape=umlLifeline;perimeter=lifelinePerimeter;whiteSpace=wrap;html=1;container=1;collapsible=0;recursiveResize=0;outlineConnect=0;size=60;" vertex="1" parent="1">
                    <mxGeometry x="735" y="210" width="127" height="460" as="geometry"/>
                </mxCell>
                <mxCell id="13" value="" style="html=1;points=[];perimeter=orthogonalPerimeter;rounded=0;shadow=0;glass=0;sketch=0;fillStyle=auto;fontSize=14;fillColor=#f5f5f5;gradientColor=#b3b3b3;strokeColor=#666666;" vertex="1" parent="12">
                    <mxGeometry x="58.5" y="333" width="10" height="70" as="geometry"/>
                </mxCell>
                <mxCell id="14" value="" style="html=1;points=[];perimeter=orthogonalPerimeter;fillColor=#f5f5f5;gradientColor=#b3b3b3;strokeColor=#666666;" vertex="1" parent="1">
                    <mxGeometry x="310" y="324" width="10" height="306" as="geometry"/>
                </mxCell>
                <mxCell id="15" value="&lt;span style=&quot;font-size: 20px;&quot;&gt;Database&lt;br&gt;&lt;/span&gt;" style="shape=umlLifeline;perimeter=lifelinePerimeter;whiteSpace=wrap;html=1;container=1;collapsible=0;recursiveResize=0;outlineConnect=0;size=60;" vertex="1" parent="1">
                    <mxGeometry x="1060" y="210" width="120" height="460" as="geometry"/>
                </mxCell>
                <mxCell id="16" value="&lt;font style=&quot;font-size: 11px;&quot;&gt;save the new news data&lt;br&gt;&lt;/font&gt;" style="html=1;verticalAlign=bottom;endArrow=block;fontSize=14;labelBackgroundColor=none;entryX=0.044;entryY=0.016;entryDx=0;entryDy=0;entryPerimeter=0;exitX=1.102;exitY=0.307;exitDx=0;exitDy=0;exitPerimeter=0;" edge="1" parent="15" source="10">
                    <mxGeometry relative="1" as="geometry">
                        <mxPoint x="-90" y="353" as="sourcePoint"/>
                        <mxPoint x="55.440000000000055" y="351.4960000000001" as="targetPoint"/>
                    </mxGeometry>
                </mxCell>
                <mxCell id="17" value="" style="html=1;points=[];perimeter=orthogonalPerimeter;rounded=0;shadow=0;glass=0;sketch=0;fillStyle=auto;fontSize=14;fillColor=#f5f5f5;gradientColor=#b3b3b3;strokeColor=#666666;" vertex="1" parent="15">
                    <mxGeometry x="55" y="349" width="10" height="31" as="geometry"/>
                </mxCell>
                <mxCell id="18" value="ok" style="html=1;verticalAlign=bottom;endArrow=open;dashed=1;endSize=8;labelBackgroundColor=none;fontSize=9;exitX=-0.1;exitY=0.968;exitDx=0;exitDy=0;exitPerimeter=0;" edge="1" parent="15" source="17">
                    <mxGeometry relative="1" as="geometry">
                        <mxPoint x="50" y="379" as="sourcePoint"/>
                        <mxPoint x="-89.9996551724139" y="379.0039999999999" as="targetPoint"/>
                    </mxGeometry>
                </mxCell>
                <mxCell id="19" value="show ok message" style="html=1;verticalAlign=bottom;endArrow=open;dashed=1;endSize=8;labelBackgroundColor=none;fontSize=9;" edge="1" parent="1">
                    <mxGeometry relative="1" as="geometry">
                        <mxPoint x="450" y="621" as="sourcePoint"/>
                        <mxPoint x="320.0003448275861" y="621.0039999999999" as="targetPoint"/>
                    </mxGeometry>
                </mxCell>
                <mxCell id="20" value="opt" style="shape=umlFrame;whiteSpace=wrap;html=1;fontSize=10;width=47;height=20;" vertex="1" parent="1">
                    <mxGeometry x="244" y="361" width="417" height="79" as="geometry"/>
                </mxCell>
                <mxCell id="21" value="error response" style="html=1;verticalAlign=bottom;endArrow=open;dashed=1;endSize=8;labelBackgroundColor=none;fontSize=9;entryX=0.518;entryY=0.3;entryDx=0;entryDy=0;entryPerimeter=0;" edge="1" parent="1" target="20">
                    <mxGeometry relative="1" as="geometry">
                        <mxPoint x="617" y="384.9999999999999" as="sourcePoint"/>
                        <mxPoint x="487.0003448275861" y="385.0039999999999" as="targetPoint"/>
                    </mxGeometry>
                </mxCell>
                <mxCell id="22" value="show error message" style="html=1;verticalAlign=bottom;endArrow=open;dashed=1;endSize=8;labelBackgroundColor=none;fontSize=9;" edge="1" parent="1">
                    <mxGeometry relative="1" as="geometry">
                        <mxPoint x="451.99000000000024" y="400.47" as="sourcePoint"/>
                        <mxPoint x="320" y="399.9999999999999" as="targetPoint"/>
                    </mxGeometry>
                </mxCell>
                <mxCell id="23" value="&lt;span style=&quot;border-color: rgb(0, 0, 0); color: rgb(240, 240, 240); font-family: Helvetica; font-style: normal; font-variant-ligatures: normal; font-variant-caps: normal; letter-spacing: normal; orphans: 2; text-indent: 0px; text-transform: none; widows: 2; word-spacing: 0px; -webkit-text-stroke-width: 0px; text-decoration-thickness: initial; text-decoration-style: initial; text-decoration-color: initial; font-size: 9px; font-weight: 700; text-align: center; background-color: rgb(42, 37, 47); float: none; display: inline !important;&quot;&gt;[credentials not valid or expired&lt;/span&gt;&lt;span style=&quot;border-color: rgb(0, 0, 0); color: rgb(240, 240, 240); font-family: Helvetica; font-style: normal; font-variant-ligatures: normal; font-variant-caps: normal; letter-spacing: normal; orphans: 2; text-indent: 0px; text-transform: none; widows: 2; word-spacing: 0px; -webkit-text-stroke-width: 0px; text-decoration-thickness: initial; text-decoration-style: initial; text-decoration-color: initial; font-size: 9px; font-weight: 700; text-align: center; background-color: rgb(42, 37, 47); float: none; display: inline !important;&quot;&gt;]&lt;/span&gt;" style="text;whiteSpace=wrap;html=1;" vertex="1" parent="1">
                    <mxGeometry x="250" y="381" width="60" height="40" as="geometry"/>
                </mxCell>
                <mxCell id="24" value="&lt;font style=&quot;font-size: 11px;&quot;&gt;check limits and pass the request&lt;br&gt;&lt;/font&gt;" style="html=1;verticalAlign=bottom;endArrow=block;fontSize=14;labelBackgroundColor=none;" edge="1" parent="1">
                    <mxGeometry relative="1" as="geometry">
                        <mxPoint x="629.5" y="548" as="sourcePoint"/>
                        <mxPoint x="793.5" y="548" as="targetPoint"/>
                    </mxGeometry>
                </mxCell>
                <mxCell id="25" value="response the final message" style="html=1;verticalAlign=bottom;endArrow=open;dashed=1;endSize=8;labelBackgroundColor=none;fontSize=9;exitX=-0.092;exitY=0.877;exitDx=0;exitDy=0;exitPerimeter=0;" edge="1" parent="1">
                    <mxGeometry relative="1" as="geometry">
                        <mxPoint x="793.5" y="608.0039999999999" as="sourcePoint"/>
                        <mxPoint x="460" y="608" as="targetPoint"/>
                    </mxGeometry>
                </mxCell>
                <mxCell id="26" value="response back" style="html=1;verticalAlign=bottom;endArrow=open;dashed=1;endSize=8;labelBackgroundColor=none;fontSize=9;exitX=-0.1;exitY=0.968;exitDx=0;exitDy=0;exitPerimeter=0;entryX=1.117;entryY=0.986;entryDx=0;entryDy=0;entryPerimeter=0;" edge="1" parent="1">
                    <mxGeometry relative="1" as="geometry">
                        <mxPoint x="959" y="597.008" as="sourcePoint"/>
                        <mxPoint x="803.6700000000001" y="597.0339999999999" as="targetPoint"/>
                    </mxGeometry>
                </mxCell>
                <mxCell id="27" value="opt" style="shape=umlFrame;whiteSpace=wrap;html=1;fontSize=10;width=47;height=20;" vertex="1" parent="1">
                    <mxGeometry x="244" y="446.5" width="417" height="79" as="geometry"/>
                </mxCell>
                <mxCell id="28" value="error response" style="html=1;verticalAlign=bottom;endArrow=open;dashed=1;endSize=8;labelBackgroundColor=none;fontSize=9;entryX=0.518;entryY=0.3;entryDx=0;entryDy=0;entryPerimeter=0;" edge="1" parent="1" target="27">
                    <mxGeometry relative="1" as="geometry">
                        <mxPoint x="617" y="470.5" as="sourcePoint"/>
                        <mxPoint x="-66.9996551724139" y="260.5039999999999" as="targetPoint"/>
                    </mxGeometry>
                </mxCell>
                <mxCell id="29" value="show error message" style="html=1;verticalAlign=bottom;endArrow=open;dashed=1;endSize=8;labelBackgroundColor=none;fontSize=9;" edge="1" parent="1">
                    <mxGeometry relative="1" as="geometry">
                        <mxPoint x="451.99" y="485.97" as="sourcePoint"/>
                        <mxPoint x="320" y="485.5" as="targetPoint"/>
                    </mxGeometry>
                </mxCell>
                <mxCell id="30" value="&lt;span style=&quot;border-color: rgb(0, 0, 0); color: rgb(240, 240, 240); font-family: Helvetica; font-style: normal; font-variant-ligatures: normal; font-variant-caps: normal; letter-spacing: normal; orphans: 2; text-indent: 0px; text-transform: none; widows: 2; word-spacing: 0px; -webkit-text-stroke-width: 0px; text-decoration-thickness: initial; text-decoration-style: initial; text-decoration-color: initial; font-size: 9px; font-weight: 700; text-align: center; background-color: rgb(42, 37, 47); float: none; display: inline !important;&quot;&gt;[if user is&lt;br&gt;not admin&lt;/span&gt;&lt;span style=&quot;border-color: rgb(0, 0, 0); color: rgb(240, 240, 240); font-family: Helvetica; font-style: normal; font-variant-ligatures: normal; font-variant-caps: normal; letter-spacing: normal; orphans: 2; text-indent: 0px; text-transform: none; widows: 2; word-spacing: 0px; -webkit-text-stroke-width: 0px; text-decoration-thickness: initial; text-decoration-style: initial; text-decoration-color: initial; font-size: 9px; font-weight: 700; text-align: center; background-color: rgb(42, 37, 47); float: none; display: inline !important;&quot;&gt;]&lt;/span&gt;" style="text;whiteSpace=wrap;html=1;" vertex="1" parent="1">
                    <mxGeometry x="250" y="466.5" width="60" height="40" as="geometry"/>
                </mxCell>
            </root>
        </mxGraphModel>
    </diagram>
</mxfile>